<?xml version="1.0" encoding="UTF-8" standalone="no"?>
<!-- Created with Inkscape (http://www.inkscape.org/) -->

<svg
   width="256mm"
   height="256mm"
   viewBox="0 0 256 256"
   version="1.1"
   id="svg1"
   sodipodi:docname="logo_white.svg"
   inkscape:version="1.3.2 (091e20ef0f, 2023-11-25, custom)"
   xmlns:inkscape="http://www.inkscape.org/namespaces/inkscape"
   xmlns:sodipodi="http://sodipodi.sourceforge.net/DTD/sodipodi-0.dtd"
   xmlns="http://www.w3.org/2000/svg"
   xmlns:svg="http://www.w3.org/2000/svg">
  <sodipodi:namedview
     id="namedview1"
     pagecolor="#505050"
     bordercolor="#ffffff"
     borderopacity="1"
     inkscape:showpageshadow="0"
     inkscape:pageopacity="0"
     inkscape:pagecheckerboard="1"
     inkscape:deskcolor="#d1d1d1"
     inkscape:document-units="mm"
     inkscape:zoom="0.47356059"
     inkscape:cx="655.67112"
     inkscape:cy="531.08305"
     inkscape:window-width="2546"
     inkscape:window-height="1036"
     inkscape:window-x="6"
     inkscape:window-y="36"
     inkscape:window-maximized="1"
     inkscape:current-layer="layer1" />
  <defs
     id="defs1" />
  <g
     inkscape:label="Layer 1"
     inkscape:groupmode="layer"
     id="layer1"
     transform="translate(-215.63917,39.807776)">
    <path
       style="fill:#ffffff;stroke-width:0.556741"
       d="m 322.9059,204.51357 c -7.6596,-6.42325 -14.81858,-12.42583 -15.90888,-13.33905 -1.09029,-0.91322 -2.11492,-1.78295 -2.27696,-1.93272 -0.21536,-0.19907 -23.36391,-19.59402 -25.48381,-21.35155 -0.16212,-0.13441 -1.4232,-1.20554 -2.80241,-2.38029 -1.37921,-1.17475 -8.5547,-7.20245 -15.94555,-13.39487 l -13.29494,-11.25896 v -35.55929 c 0,-22.920032 -0.0921,-35.541824 0,-35.510178 0.0786,0.027 7.23089,6.02352 15.98129,13.355598 l 15.99298,13.355599 v 17.308261 17.30827 l 12.77622,10.70407 12.99287,10.70408 V 82.626707 c 0.0238,-45.012422 -0.0919,-69.878377 0,-69.84679 0.10058,0.03457 27.61586,22.882539 31.89567,26.513901 0.28576,0.242461 0.0366,1.041161 0,88.571532 v 88.32687 z M 354.24714,101.41376 V -13.096604 l 15.66281,-13.331047 c 8.75039,-7.332074 16.19086,-13.353117 16.26939,-13.380091 0.092,-0.03162 -0.0238,22.155602 0,62.365952 V 84.973203 L 412.84143,62.61846 c 14.66415,-12.295107 27.0334,-22.456004 27.17518,-22.579773 0.24544,-0.214256 10e-4,2.262835 0,51.759426 v 51.984447 l -11.52198,9.64844 c -6.33708,5.30664 -12.65023,10.6096 -14.02922,11.78435 -1.37898,1.17475 -2.63989,2.24588 -2.80201,2.38029 -2.02204,1.6764 -25.26761,21.15133 -25.48381,21.35011 -0.16203,0.14898 -1.22263,1.05006 -2.35687,2.0024 -4.73874,3.97878 -29.34246,24.58794 -29.57558,24.77381 -0.23983,0.19123 -0.003,-5.99757 0,-114.3082 z m 45.5921,39.36809 11.779,-9.96208 v -16.69449 c 0.002,-9.18197 0.0652,-16.672399 0,-16.645391 -0.0652,0.027 -5.8322,4.843761 -12.81548,10.703901 l -12.69687,10.6548 v 16.71974 16.71974 -0.76708 c 0.50635,-0.42188 7.1928,-5.25 13.73351,-10.72914 z M 321.27883,9.1061894 C 312.80537,1.9987503 305.23335,-4.029835 304.93667,-4.2906665 V -4.7649052 -22.163599 c 0,-11.181549 -0.0918,-17.38115 0,-17.349593 0.0786,0.027 7.30237,6.048072 16.05276,13.380149 l 15.91316,13.331048 V 4.6167485 c 0.002,9.5803085 0.0607,17.4172395 0,17.4154005 -0.0608,-0.0018 -7.15038,-5.818521 -15.62383,-12.9259596 z"
       id="path1"
       sodipodi:nodetypes="sssssscsssccccccssscsccssscssccsssssscccccsscccscccscsssccsc" />
  </g>
</svg>
