<?xml version="1.0" standalone="no"?>
<!DOCTYPE svg PUBLIC "-//W3C//DTD SVG 20010904//EN"
 "http://www.w3.org/TR/2001/REC-SVG-20010904/DTD/svg10.dtd">
<svg version="1.0" xmlns="http://www.w3.org/2000/svg"
 width="700.000000pt" height="700.000000pt" viewBox="0 0 700.000000 700.000000"
 preserveAspectRatio="xMidYMid meet">
<metadata>
Created by potrace 1.14, written by Peter Selinger 2001-2017
</metadata>
<g transform="translate(0.000000,700.000000) scale(0.100000,-0.100000)"
fill="#000000" stroke="none">
<path d="M2441 6511 l1 -482 101 -82 c56 -45 113 -91 127 -103 53 -46 595
-494 630 -521 14 -11 16 36 15 462 l0 475 -25 23 c-21 18 -269 226 -700 585
-36 30 -76 64 -90 76 -66 55 -60 100 -59 -433z"/>
<path d="M4600 6951 c-25 -21 -157 -132 -295 -246 -137 -115 -261 -219 -275
-231 -28 -26 -47 -42 -116 -99 -27 -22 -66 -56 -86 -75 l-38 -35 -1 -3119 c0
-1715 2 -3121 6 -3124 3 -3 20 8 38 25 17 16 156 133 307 259 151 126 286 239
300 250 53 46 301 254 415 349 66 55 122 102 125 105 3 3 102 86 220 185 225
188 256 214 274 230 10 10 191 161 411 344 50 42 92 78 95 81 3 3 30 25 60 50
30 25 64 53 75 63 19 17 19 37 20 1432 1 778 0 1415 -2 1415 -5 0 -135 -104
-178 -142 -16 -15 -131 -111 -255 -213 -124 -103 -234 -194 -245 -203 -11 -10
-116 -98 -234 -197 -117 -99 -230 -193 -251 -210 -21 -16 -91 -75 -157 -130
-65 -55 -126 -106 -134 -113 -15 -11 -16 126 -15 1688 1 1128 -2 1700 -9 1699
-5 0 -30 -17 -55 -38z m759 -4165 l-1 -453 -76 -64 c-43 -35 -79 -66 -82 -70
-21 -24 -388 -319 -497 -399 l-42 -31 0 445 -1 445 73 62 c39 34 94 80 121
103 27 22 63 53 80 67 48 40 75 63 161 135 223 186 257 214 261 214 2 0 3
-204 3 -454z"/>
<path d="M2441 3660 c1 -1046 -1 -1903 -4 -1906 -5 -5 -226 174 -546 443
l-154 130 -1 475 -1 476 -30 24 c-24 19 -402 333 -579 482 -101 84 -202 168
-221 185 -12 9 -26 20 -32 24 -8 5 -11 -252 -10 -963 l0 -970 46 -39 c25 -21
125 -105 221 -186 96 -81 189 -159 205 -174 17 -14 57 -48 90 -76 33 -27 69
-57 80 -67 11 -9 85 -71 165 -138 80 -67 156 -132 170 -143 14 -12 135 -114
270 -227 135 -113 360 -302 501 -420 141 -118 347 -291 459 -385 112 -94 212
-178 222 -187 10 -10 18 -15 19 -10 0 4 2 1091 3 2416 1 1816 -1 2412 -10
2420 -23 22 -118 101 -138 116 -12 8 -25 19 -31 25 -5 7 -104 90 -220 185
-230 190 -314 260 -389 323 -27 23 -57 48 -67 55 -18 12 -18 -58 -18 -1888z"/>
</g>
</svg>
