<?xml version="1.0" encoding="UTF-8" standalone="no"?>
<!-- Created with Inkscape (http://www.inkscape.org/) -->

<svg
   width="346.61276mm"
   height="459.81885mm"
   viewBox="0 0 346.61276 459.81885"
   version="1.1"
   id="svg1"
   xmlns:inkscape="http://www.inkscape.org/namespaces/inkscape"
   xmlns:sodipodi="http://sodipodi.sourceforge.net/DTD/sodipodi-0.dtd"
   xmlns="http://www.w3.org/2000/svg"
   xmlns:svg="http://www.w3.org/2000/svg">
  <sodipodi:namedview
     id="namedview1"
     pagecolor="#505050"
     bordercolor="#ffffff"
     borderopacity="1"
     inkscape:showpageshadow="0"
     inkscape:pageopacity="0"
     inkscape:pagecheckerboard="1"
     inkscape:deskcolor="#d1d1d1"
     inkscape:document-units="mm" />
  <defs
     id="defs1" />
  <g
     inkscape:label="Layer 1"
     inkscape:groupmode="layer"
     id="layer1"
     transform="translate(-215.63917,39.807776)">
    <path
       style="fill:#000000"
       d="m 351.70511,399.03425 c -13.75791,-11.53724 -26.61665,-22.31887 -28.575,-23.95917 -1.95835,-1.6403 -3.79876,-3.20247 -4.0898,-3.47149 -0.38683,-0.35756 -41.96549,-35.19414 -45.77319,-38.35095 -0.29119,-0.24142 -2.55631,-2.16535 -5.0336,-4.2754 -2.47729,-2.11005 -15.36568,-12.9368 -28.64087,-24.05943 L 215.71271,284.69483 V 220.8244 c 0,-41.16822 -0.16547,-63.83907 0,-63.78223 0.14122,0.0485 12.98789,10.81925 28.70507,23.98889 l 28.72607,23.98889 v 31.08854 31.08854 l 22.94822,19.22631 23.33737,19.22631 V 180.10504 c 0.0428,-80.849842 -0.16506,-125.513259 0,-125.456522 0.18066,0.0621 49.60271,41.100868 57.28997,47.623402 0.51327,0.4355 0.0658,1.8701 0,159.0893 V 420.01106 Z M 407.99922,213.84974 V 8.1699548 l 28.13303,-23.9447908 c 15.71717,-13.169632 29.0815,-23.984432 29.22255,-24.032882 0.16522,-0.0568 -0.0428,39.79516777 0,112.019686 V 184.31974 l 47.88958,-40.15286 c 26.33927,-22.08407 48.5565,-40.33474 48.81116,-40.55705 0.44086,-0.38484 0.002,4.06443 0,92.96859 v 93.37278 l -20.69539,17.33021 c -11.38246,9.53161 -22.72194,19.05661 -25.19883,21.16666 -2.47689,2.11005 -4.74168,4.03398 -5.03288,4.2754 -3.63193,3.01109 -45.38486,37.99132 -45.77319,38.34836 -0.29104,0.2676 -2.19604,1.88609 -4.23333,3.59666 -8.51157,7.14655 -52.70397,44.16405 -53.1227,44.49791 -0.43077,0.34347 -0.006,-10.77265 0,-205.31666 z m 81.89105,70.71168 21.15705,-17.89356 v -29.98611 c 0.003,-16.49236 0.11713,-29.94642 0,-29.89791 -0.11718,0.0485 -10.47561,8.70021 -23.01875,19.226 l -22.8057,19.13781 v 30.03145 30.03144 -1.37779 c 0.9095,-0.75778 12.91947,-9.42988 24.66768,-19.27133 z M 348.78263,48.049887 C 333.56288,35.283737 319.96226,24.455389 319.42937,23.986892 V 23.13508 -8.1158852 c 0,-20.0839328 -0.16497,-31.2194528 0,-31.1627728 0.14122,0.0485 13.11628,10.86335 28.83345,24.032988 L 376.84551,8.6991218 V 39.9861 c 0.003,17.207838 0.10911,31.284277 0,31.280974 -0.10914,-0.0033 -12.84327,-10.451037 -28.06301,-23.217187 z"
       id="path1"
       sodipodi:nodetypes="sssssscsssccccccssscsccssscssccsssssscccccsscccscccscsssccsc" />
  </g>
</svg>
